<svg xmlns="http://www.w3.org/2000/svg" viewBox="0 0 512 512" role="img" aria-labelledby="title desc">
  <title id="title">Creator avatar placeholder</title>
  <desc id="desc">A simple avatar-style placeholder for the credited visual creator.</desc>
  <defs>
    <linearGradient id="bg" x1="0" x2="1" y1="0" y2="1">
      <stop offset="0" stop-color="#8589df"/>
      <stop offset="1" stop-color="#6b4acb"/>
    </linearGradient>
  </defs>
  <rect width="512" height="512" rx="56" fill="url(#bg)"/>
  <circle cx="256" cy="210" r="108" fill="#f8f7fb"/>
  <path d="M110 454c19-88 78-142 146-142s127 54 146 142Z" fill="#111018"/>
  <path d="M152 192c10-76 58-128 125-128 51 0 91 32 104 85 21 12 33 35 33 62 0 57-51 104-154 104-72 0-128-50-128-112 0-4 9-5 20-11Z" fill="#2b2b35"/>
  <path d="M177 193c35-14 65-38 90-73 18 40 47 70 88 91-3 72-43 121-97 121-52 0-91-54-81-139Z" fill="#f5e7dc"/>
  <circle cx="219" cy="243" r="13" fill="#356da8"/>
  <circle cx="303" cy="243" r="13" fill="#356da8"/>
  <path d="M228 294c20 16 43 17 66 0" fill="none" stroke="#5b3b4a" stroke-width="8" stroke-linecap="round"/>
  <path d="M170 170c64 3 123-28 164-82" fill="none" stroke="#dfe3ff" stroke-width="22" stroke-linecap="round"/>
  <text x="256" y="470" fill="#ffffff" font-family="Arial Black, Arial, sans-serif" font-size="30" text-anchor="middle">NEO_BABYYY</text>
</svg>
